<svg viewBox="-271 0 512 512" xmlns="http://www.w3.org/2000/svg">
    <path d="m121,422c66.16797,0 120,-61.55859 120,-136c0,-58.67187 -33.47656,-92.71484 -35.1875,-95.74219c0.85938,-4.75781 5.1875,-19.24609 5.1875,-39.25781c0,-66.16797 -40.37109,-121 -90,-121s-91,54.83203 -91,121c0,19.98828 4.35156,34.64453 5.1875,39.25781c-1.69531,3 -35.1875,35.9961 -35.1875,95.74219c0,74.44141 54.83203,136 121,136zm0,0"/>
    <path d="m15,542l482,0c8.28906,0 15,-6.71094 15,-15s-6.71094,-15 -15,-15l-15,0l0,-30l15,0c8.28906,0 15,-6.71094 15,-15s-6.71094,-15 -15,-15l-15,0l0,-45c0,-8.28906 -6.71094,-15 -15,-15l-91,0c-8.28906,0 -15,6.71094 -15,15l0,45l-15,0c-8.28906,0 -15,6.71094 -15,15s6.71094,15 15,15l15,0l0,30l-60,0l0,-63.32422c-9.69531,2.17188 -19.72656,3.32422 -30,3.32422c-10.11719,0 -20.125,-1.27344 -30,-3.5625l0,63.5625l-90,0l0,-63.32422c-9.69531,2.17188 -19.72656,3.32422 -30,3.32422s-20.30469,-1.15234 -30,-3.32422l0,63.32422l-76,0c-8.28906,0 -15,6.71094 -15,15s6.71094,15 15,15zm376,-60l61,0l0,30l-61,0l0,-30zm0,0"/>
</svg>
